<svg width="500" height="500" viewBox="0 0 500 500" fill="none" xmlns="http://www.w3.org/2000/svg">
<g clip-path="url(#clip0_2017_1871)">
<path d="M250.046 480.813C373.898 480.813 474.3 421.087 474.3 347.413C474.3 273.738 373.898 214.013 250.046 214.013C126.194 214.013 25.792 273.738 25.792 347.413C25.792 421.087 126.194 480.813 250.046 480.813Z" fill="#FAFAFA"/>
<path d="M89.2911 414.31C98.4221 417.639 107.154 422.098 115.238 427.558C124.324 433.695 132.622 441.109 142.306 446.206C154.891 452.829 169.361 455.227 183.531 454.547C191.557 454.161 200.289 452.406 205.446 446.076C206.766 444.455 207.821 442.489 207.856 440.384C207.907 437.294 205.803 434.643 203.623 432.516C191.996 421.163 175.729 416.491 160.037 412.838C144.344 409.184 134.944 404.619 119.555 396.397C112.969 392.878 106.48 389.095 99.8431 385.777C99.7891 385.75 99.7361 385.723 99.6821 385.697C96.3121 384.021 93.1491 382.168 89.5951 380.86C85.0541 379.189 81.2911 377.972 76.2821 378.343C71.2931 378.712 65.6721 378.639 62.1551 382.703C59.1021 386.231 58.7681 390.998 60.5901 395.195C65.4561 406.41 78.7911 410.482 89.2911 414.31Z" fill="#E0E0E0"/>
<path opacity="0.1" d="M211.607 198.106C250.611 159.102 250.611 95.8631 211.607 56.8587C172.602 17.8543 109.363 17.8543 70.3591 56.8587C31.3547 95.8631 31.3547 159.102 70.3591 198.106C109.363 237.111 172.602 237.111 211.607 198.106Z" fill="#00AC4F"/>
<path d="M175.934 301.542C175.934 280.873 161.307 279.078 135.468 277.438C123.368 276.669 87.2759 281.146 87.2759 281.146L98.5529 158.162L173.393 155.628C173.393 155.628 185.352 273.022 185.718 281.145C186.083 289.269 175.934 301.542 175.934 301.542Z" fill="#00AC4F"/>
<path opacity="0.3" d="M175.934 301.542C175.934 280.873 161.307 279.078 135.468 277.438C123.368 276.669 87.2759 281.146 87.2759 281.146L98.5529 158.162L173.393 155.628C173.393 155.628 185.352 273.022 185.718 281.145C186.083 289.269 175.934 301.542 175.934 301.542Z" fill="black"/>
<path d="M79.068 358.888C77.253 359.848 75.977 362.441 76.067 363.668C76.067 363.668 76.644 367.465 78.82 371.776C80.995 376.087 81.56 380.72 81.066 385.832C80.571 390.944 80.55 397.374 85.485 403.218C90.474 409.127 99.782 410.804 105.585 409.806C111.566 408.777 115.619 406.64 115.129 402.211L79.068 358.888Z" fill="#37474F"/>
<path d="M106.28 387.962C105.375 384.6 104.879 381.139 104.802 377.669C104.764 375.98 104.773 374.234 104.89 372.554C104.984 371.206 105.693 370.201 106.008 368.88C106.227 367.961 106.108 366.894 105.393 366.242C105.01 365.892 104.501 365.701 104.002 365.53C101.042 364.517 98.4292 364.178 95.3182 364.294C93.9582 364.345 92.3812 364.508 91.6472 365.601C91.5162 365.797 91.4172 366.017 91.2392 366.175C90.8482 366.521 90.1842 366.434 89.7782 366.105C88.6712 365.207 88.8842 362.918 88.2512 361.663C87.0662 359.314 84.8262 352.501 88.1572 349.442L89.1752 348.369C89.1752 348.369 88.8052 347.357 87.3882 348.586C85.9712 349.815 81.1132 353.849 79.7712 356.015C78.4302 358.182 76.8802 360.762 78.4612 365.31C80.0432 369.858 81.3372 370.892 82.3302 375.687C82.7532 377.731 83.2262 379.845 83.2882 381.935C83.3602 384.349 82.9922 386.84 82.9892 389.281C82.9862 392.236 83.2102 395.285 84.5972 397.929C89.4312 407.145 101.07 409.625 110.608 405.929C111.791 405.471 112.957 404.907 113.864 404.05C115.696 402.32 116.112 399.499 114.409 397.576C113.497 396.546 112.272 395.823 111.168 394.981C108.807 393.178 107.117 391.005 106.346 388.208C106.324 388.125 106.302 388.043 106.28 387.962Z" fill="#455A64"/>
<path d="M169.866 213.272C169.866 213.272 172.519 245.45 165.313 278.043C159.961 302.248 154.124 307.886 151.114 311.27C137.762 326.28 105.028 371.735 105.028 371.735C105.028 371.735 81.1871 377.621 83.8421 351.684C93.2101 331.003 111.161 297.032 120.612 287.036L105.963 218.8L169.866 213.272Z" fill="#263238"/>
<path d="M202.775 377.718C200.128 375.06 195.853 375.037 190.137 377.846C183.308 381.202 179.951 385.185 179.951 385.185C175.322 390.454 173.724 387.52 173.724 387.52C173.724 387.52 169.879 388.545 162.614 394.268C155.349 399.991 153.941 400.921 153.941 400.921C153.941 400.921 155.194 403.13 155.702 410.343C156.21 417.557 156.968 421.502 158.199 425.162L188.205 396.335L186.285 393.741C192.948 389.721 202.775 377.718 202.775 377.718Z" fill="#455A64"/>
<path d="M206.797 382.836C206.395 380.793 205.661 379.529 204.69 378.864C204.318 378.609 203.025 377.889 202.775 377.718C199.471 375.447 193.414 380.128 188.299 384.738C182.342 390.106 176.748 400.982 171.884 408.331C167.021 415.679 161.076 418.442 159.079 421.683C157.662 423.983 157.994 426.545 159.545 428.334C159.843 428.678 160.945 429.762 161.164 429.984C162.701 431.54 165.455 432.204 168.729 431.611C175.336 430.415 180.103 428.344 185.667 420.482C191.232 412.619 194.168 408.546 200.601 403.542C207.036 398.537 208.062 389.257 206.797 382.836Z" fill="#37474F"/>
<path d="M206.797 382.836C205.026 373.838 196.83 379.932 190.215 385.894C184.257 391.263 178.664 402.138 173.8 409.487C168.937 416.835 162.849 419.51 160.995 422.839C157.623 428.893 162.123 432.807 168.73 431.611C175.337 430.415 180.104 428.344 185.669 420.482C191.234 412.619 194.17 408.546 200.603 403.542C207.036 398.537 208.062 389.257 206.797 382.836Z" fill="#263238"/>
<path d="M176.49 388.045L176.491 388.043C174.49 388.918 173.724 387.519 173.724 387.519C167.375 393.911 166.634 398.061 166.634 398.061C166.634 398.061 172.848 390.493 176.49 388.045Z" fill="#37474F"/>
<path d="M94.086 214.191C92.457 226.817 94.292 245.991 102.482 262.246C110.672 278.5 112.643 281.463 130.792 318.336C130.717 326.55 130.761 334.73 136.399 350.228C143.407 369.492 155.756 411.089 155.756 411.089C155.756 411.089 161.359 396.512 177.769 387.519C175.531 374.568 169.414 325.817 166.921 312.498C163.817 295.917 151.651 239.158 151.651 239.158C151.651 239.158 167.571 232.063 169.866 213.272L94.086 214.191Z" fill="#37474F"/>
<path d="M144.1 241.357C148.341 251.647 151.562 262.356 154.48 273.108C157.343 283.884 160.028 294.717 161.827 305.783C163.395 316.822 164.936 327.866 166.342 338.93C167.781 349.988 169.07 361.068 170.211 372.163C168.177 361.198 166.29 350.217 164.553 339.215C162.784 328.218 161.148 317.201 159.541 306.18C158.753 300.692 157.559 295.274 156.412 289.836C155.265 284.399 153.995 278.987 152.734 273.573C151.445 268.165 150.121 262.765 148.7 257.391C147.326 252.001 145.79 246.661 144.1 241.357Z" fill="#263238"/>
<path d="M219.973 149.086C219.155 150.296 201.394 163.217 201.394 163.217C201.394 163.217 188.445 146.033 182.835 138.525C173.855 126.507 169.508 123.771 161.341 123.721L164.055 158.11C164.055 158.11 177.653 174.631 184.77 182.424C193.422 191.898 197.886 191.879 200.952 191.14C207.037 189.674 218.228 178.222 232.224 159.975C233.951 158.115 234.836 158.578 237.79 157.384C239.66 156.629 241.448 156.005 244.48 154.043C246.189 152.936 246.988 151.737 247.655 150.316C248.138 149.286 245.189 145.204 245 144.083C244.717 142.401 245.408 140.657 245.06 138.988C245.02 138.796 244.965 138.615 244.898 138.443C244.529 137.492 243.794 136.807 243.156 135.978C243.074 135.871 242.994 135.755 242.979 135.621C242.965 135.501 242.974 135.366 243.047 135.27C244.686 133.114 247.778 129.599 250.176 126.973C251.4 125.633 253.465 123.337 252.47 121.232C252.164 120.586 251.372 120.284 250.66 120.352C249.948 120.42 249.302 120.784 248.699 121.169C246.45 122.606 244.483 124.435 242.53 126.253C240.816 127.848 239.103 129.444 237.39 131.039C234.342 133.877 231.281 136.728 228.638 139.957C227.381 141.492 225.808 140.416 224.944 142.194C223.553 145.051 221.114 147.397 219.973 149.086Z" fill="#FFA8A7"/>
<path d="M237.284 139.954C237.272 139.526 237.249 139.097 237.217 138.668C237.216 138.65 237.214 138.632 237.213 138.615C236.915 138.956 236.642 139.318 236.369 139.68C236.063 140.085 236.212 140.632 236.216 141.122C236.221 141.687 236.205 142.253 236.163 142.817C236.079 143.943 235.892 145.062 235.57 146.145C234.856 148.545 233.404 150.543 231.545 152.202C231.473 152.266 231.444 152.562 231.601 152.482C233.949 151.29 235.489 149.033 236.344 146.598C237.099 144.444 237.346 142.207 237.284 139.954Z" fill="#F28F8F"/>
<path d="M238.332 153.23L238.333 153.228C238.334 153.225 238.335 153.223 238.337 153.221L248.919 131.059L248.92 131.057L248.932 131.033L248.929 131.031C249.139 130.605 249.079 130.041 248.691 129.43C247.901 128.183 246.066 127.221 244.591 127.281C243.852 127.311 243.344 127.593 243.12 128.023L230.775 149.176C230.384 149.851 230.173 150.641 230.204 151.479C230.291 153.846 232.281 155.695 234.649 155.608C236.274 155.548 237.654 154.591 238.332 153.23Z" fill="#455A64"/>
<path d="M243.119 128.023L230.774 149.176C230.383 149.851 230.172 150.641 230.203 151.479C230.287 153.753 232.128 155.544 234.371 155.604C232.952 155.332 231.668 153.049 233.175 150.103C234.69 147.141 243.124 132.377 245.742 127.416C245.35 127.315 244.959 127.266 244.59 127.281C243.851 127.311 243.343 127.593 243.119 128.023Z" fill="#37474F"/>
<path d="M248.686 129.423C247.894 128.177 246.058 127.218 244.583 127.281C243.869 127.311 243.372 127.576 243.139 127.983C242.968 128.282 242.292 129.411 242.112 129.717C241.85 130.164 241.9 130.779 242.323 131.446C243.139 132.731 245.034 133.719 246.554 133.654C247.339 133.621 247.871 133.313 248.09 132.846C248.241 132.524 248.931 131.033 248.931 131.033C249.144 130.607 249.076 130.036 248.686 129.423Z" fill="#00AC4F"/>
<path d="M248.686 129.423C249.477 130.669 248.924 131.729 247.449 131.792C245.974 131.855 244.138 130.896 243.346 129.65C242.555 128.404 243.108 127.344 244.583 127.281C246.057 127.218 247.894 128.177 248.686 129.423Z" fill="#00AC4F"/>
<path opacity="0.3" d="M248.686 129.423C249.477 130.669 248.924 131.729 247.449 131.792C245.974 131.855 244.138 130.896 243.346 129.65C242.555 128.404 243.108 127.344 244.583 127.281C246.057 127.218 247.894 128.177 248.686 129.423Z" fill="white"/>
<path d="M249.708 119.418C250.685 119.378 251.901 120.015 252.424 120.841C252.684 121.252 252.723 121.632 252.577 121.915L252.576 121.919L248.114 130.363C248.113 130.365 248.112 130.366 248.111 130.368L248.11 130.37C247.96 130.651 247.626 130.836 247.139 130.856C246.162 130.896 244.946 130.259 244.423 129.433C244.161 129.02 244.123 128.638 244.271 128.354L248.732 119.912C248.88 119.625 249.218 119.438 249.708 119.418Z" fill="#37474F"/>
<path d="M248.734 119.912C248.882 119.626 249.218 119.438 249.709 119.418C250.077 119.403 250.479 119.484 250.865 119.636L245.254 130.256C244.913 130.025 244.62 129.742 244.424 129.433C244.162 129.02 244.124 128.638 244.272 128.354L248.734 119.912Z" fill="#263238"/>
<path d="M252.756 122.757C255.993 124.737 260.538 124.579 265.624 121.812C275.797 116.279 284.282 102.409 284.576 90.8325C284.723 85.0445 282.795 80.9255 279.559 78.9455L273.597 75.2985C270.36 73.3185 265.815 73.4765 260.729 76.2435C250.557 81.7765 242.071 95.6465 241.777 107.223C241.63 113.011 243.558 117.13 246.795 119.11L252.756 122.757ZM282.093 90.7695C281.961 95.9395 280.041 101.808 276.685 107.293C273.329 112.778 268.979 117.16 264.436 119.631C260.328 121.865 256.64 122.223 254.051 120.639C251.462 119.055 250.101 115.608 250.22 110.934C250.351 105.764 252.272 99.8955 255.628 94.4105C258.983 88.9255 263.333 84.5435 267.877 82.0725C271.984 79.8385 275.673 79.4805 278.262 81.0645C280.852 82.6485 282.212 86.0945 282.093 90.7695Z" fill="#00AC4F"/>
<path opacity="0.3" d="M252.756 122.757C255.993 124.737 260.538 124.579 265.624 121.812C275.797 116.279 284.282 102.409 284.576 90.8325C284.723 85.0445 282.795 80.9255 279.559 78.9455L273.597 75.2985C270.36 73.3185 265.815 73.4765 260.729 76.2435C250.557 81.7765 242.071 95.6465 241.777 107.223C241.63 113.011 243.558 117.13 246.795 119.11L252.756 122.757ZM282.093 90.7695C281.961 95.9395 280.041 101.808 276.685 107.293C273.329 112.778 268.979 117.16 264.436 119.631C260.328 121.865 256.64 122.223 254.051 120.639C251.462 119.055 250.101 115.608 250.22 110.934C250.351 105.764 252.272 99.8955 255.628 94.4105C258.983 88.9255 263.333 84.5435 267.877 82.0725C271.984 79.8385 275.673 79.4805 278.262 81.0645C280.852 82.6485 282.212 86.0945 282.093 90.7695Z" fill="white"/>
<path opacity="0.4" d="M280.899 84.0915C280.26 82.7725 279.376 81.7455 278.262 81.0645C275.673 79.4805 271.985 79.8385 267.877 82.0725C265.968 83.1105 264.095 84.4895 262.313 86.1425L254.163 81.1565C256.216 79.1755 258.428 77.4955 260.728 76.2435C265.814 73.4765 270.359 73.3185 273.596 75.2985L279.558 78.9455C281.051 79.8585 282.26 81.2315 283.121 83.0085L280.899 84.0915Z" fill="#00AC4F"/>
<path opacity="0.3" d="M252.756 122.757L246.794 119.11C243.557 117.13 241.629 113.011 241.776 107.223C241.816 105.646 242.013 104.025 242.341 102.39L250.576 107.382C250.373 108.592 250.249 109.781 250.22 110.934C250.101 115.608 251.462 119.055 254.051 120.639C254.912 121.166 255.897 121.473 256.976 121.573L257.35 124.076C255.636 124.015 254.084 123.569 252.756 122.757Z" fill="white"/>
<path d="M266.691 79.8883C256.519 85.4213 248.034 99.2913 247.739 110.867C247.444 122.443 255.452 127.342 265.624 121.809C275.797 116.276 284.282 102.406 284.576 90.8303C284.871 79.2553 276.864 74.3563 266.691 79.8883ZM278.263 81.0623C280.853 82.6463 282.214 86.0933 282.094 90.7673C281.962 95.9363 280.042 101.804 276.686 107.29C273.33 112.775 268.98 117.157 264.437 119.628C260.33 121.862 256.641 122.22 254.052 120.636C251.463 119.052 250.102 115.605 250.221 110.931C250.353 105.761 252.273 99.8933 255.628 94.4083C258.984 88.9233 263.334 84.5413 267.877 82.0703C271.985 79.8363 275.674 79.4783 278.263 81.0623Z" fill="#00AC4F"/>
<g opacity="0.5">
<path d="M266.691 79.8883C256.519 85.4213 248.034 99.2913 247.739 110.867C247.444 122.443 255.452 127.342 265.624 121.809C275.797 116.276 284.282 102.406 284.576 90.8303C284.871 79.2553 276.864 74.3563 266.691 79.8883ZM278.263 81.0623C280.853 82.6463 282.214 86.0933 282.094 90.7673C281.962 95.9363 280.042 101.804 276.686 107.29C273.33 112.775 268.98 117.157 264.437 119.628C260.33 121.862 256.641 122.22 254.052 120.636C251.463 119.052 250.102 115.605 250.221 110.931C250.353 105.761 252.273 99.8933 255.628 94.4083C258.984 88.9233 263.334 84.5413 267.877 82.0703C271.985 79.8363 275.674 79.4783 278.263 81.0623Z" fill="white"/>
</g>
<path opacity="0.4" d="M260.285 123.872C258.412 124.255 256.426 124.286 254.576 123.695C252.726 123.116 251.104 121.882 249.988 120.3C248.856 118.72 248.215 116.846 247.864 114.955C247.705 114.004 247.605 113.043 247.576 112.08C247.568 111.599 247.558 111.116 247.585 110.636L247.681 109.196C247.697 108.714 247.778 108.239 247.848 107.764C247.92 107.288 247.983 106.811 248.063 106.337L248.376 104.929L248.533 104.225C248.589 103.991 248.665 103.763 248.73 103.532C249.77 99.8305 251.358 96.2955 253.342 93.0065C255.366 89.7425 257.791 86.7195 260.612 84.1085C260.788 83.9455 260.957 83.7735 261.139 83.6175L261.694 83.1575L262.805 82.2385C263.19 81.9515 263.587 81.6785 263.977 81.3975C264.369 81.1185 264.754 80.8305 265.176 80.5965L266.415 79.8555C266.83 79.6125 267.264 79.4015 267.696 79.1895C268.567 78.7765 269.468 78.4285 270.387 78.1375C272.23 77.5895 274.19 77.3065 276.113 77.5955C278.029 77.8695 279.866 78.7515 281.224 80.1345C282.592 81.5125 283.469 83.2955 283.981 85.1375C284.486 86.9915 284.631 88.9205 284.577 90.8305C284.599 88.9205 284.42 86.9975 283.887 85.1645C283.348 83.3435 282.449 81.5985 281.087 80.2735C279.742 78.9365 277.949 78.0945 276.077 77.8455C274.199 77.5815 272.283 77.8755 270.478 78.4305C268.673 79.0135 266.958 79.8605 265.36 80.8895C264.945 81.1215 264.564 81.4075 264.178 81.6845C263.793 81.9635 263.402 82.2345 263.022 82.5195L261.926 83.4325L261.378 83.8885C261.198 84.0435 261.032 84.2145 260.857 84.3765C258.072 86.9705 255.678 89.9755 253.681 93.2155C251.704 96.4685 250.12 99.9685 249.079 103.63C249.014 103.859 248.938 104.085 248.881 104.316L248.724 105.012L248.41 106.404C248.329 106.872 248.266 107.343 248.193 107.813C248.122 108.283 248.041 108.752 248.024 109.227C247.835 111.118 247.861 113.031 248.165 114.904C248.493 116.764 249.103 118.605 250.194 120.156C251.268 121.709 252.835 122.922 254.637 123.511C256.437 124.12 258.4 124.126 260.267 123.777C262.142 123.417 263.935 122.7 265.626 121.811C263.949 122.728 262.166 123.477 260.285 123.872Z" fill="white"/>
<path d="M278.264 81.0618C277.247 80.4398 276.068 80.1208 274.758 80.0928C275.731 81.8818 276.206 84.2738 276.129 87.1208C276.001 92.2888 274.081 98.1588 270.724 103.646C267.37 109.128 263.018 113.511 258.475 115.978C255.975 117.343 253.629 118.009 251.591 117.961C252.215 119.111 253.036 120.015 254.053 120.637C256.642 122.221 260.331 121.863 264.441 119.627C268.98 117.158 273.332 112.775 276.686 107.292C280.043 101.805 281.963 95.9348 282.095 90.7688C282.215 86.0928 280.853 82.6458 278.264 81.0618Z" fill="#00AC4F"/>
<path opacity="0.3" d="M278.264 81.0618C277.247 80.4398 276.068 80.1208 274.758 80.0928C275.731 81.8818 276.206 84.2738 276.129 87.1208C276.001 92.2888 274.081 98.1588 270.724 103.646C267.37 109.128 263.018 113.511 258.475 115.978C255.975 117.343 253.629 118.009 251.591 117.961C252.215 119.111 253.036 120.015 254.053 120.637C256.642 122.221 260.331 121.863 264.441 119.627C268.98 117.158 273.332 112.775 276.686 107.292C280.043 101.805 281.963 95.9348 282.095 90.7688C282.215 86.0928 280.853 82.6458 278.264 81.0618Z" fill="white"/>
<path opacity="0.4" d="M264.441 119.628C260.33 121.864 256.641 122.222 254.053 120.638C253.036 120.016 252.215 119.112 251.591 117.962C253.629 118.009 255.976 117.343 258.476 115.979C259.498 115.424 260.509 114.768 261.502 114.028C260.668 114.666 258.276 116.723 261.291 117.284C264.873 117.95 271.33 114.451 274.29 110.787L274.298 110.788C271.377 114.634 267.966 117.71 264.441 119.628Z" fill="#00AC4F"/>
<path opacity="0.7" d="M279.395 89.1166C279.264 94.2866 277.343 100.155 273.988 105.64C270.632 111.125 266.282 115.507 261.739 117.977C258.35 119.821 255.248 120.383 252.811 119.635C251.035 117.806 250.124 114.789 250.222 110.932C250.354 105.762 252.274 99.8936 255.629 94.4086C258.985 88.9236 263.335 84.5416 267.878 82.0706C271.267 80.2276 274.369 79.6646 276.806 80.4126C278.581 82.2416 279.493 85.2596 279.395 89.1166Z" fill="white"/>
<path d="M232.497 134.08C233.782 133.184 235.132 132.132 236.423 131.313C237.806 130.435 238.817 129.515 240.199 128.637C240.557 128.41 241.418 128.347 241.871 128.482C242.337 128.621 242.656 129.242 242.721 129.686C242.855 130.599 242.488 131.461 242.145 132.285C241.649 133.474 240.899 134.546 240.064 135.519C238.482 137.363 236.755 139.085 235.315 141.047C232.983 144.224 223.25 146.276 223.25 146.276C224.228 143.419 224.747 142.22 225.804 139.883C226.267 138.858 227.239 137.822 227.96 137.166C228.624 136.562 229.405 136.087 230.422 135.436C231.086 135.011 231.843 134.536 232.497 134.08Z" fill="#FFA8A7"/>
<path d="M236.421 131.312C237.884 130.231 238.991 129.175 240.513 128.154C241.617 127.353 243.03 128.856 243.029 129.954C242.94 131 242.641 132.016 242.178 132.957C241.533 134.267 240.601 135.411 239.612 136.476C239.104 137.022 238.577 137.551 238.051 138.079C237.888 138.242 236.669 139.586 236.545 139.431C236.364 139.204 237.751 137.817 237.94 137.6C239.884 135.379 242.093 133.044 242.46 129.978C242.452 129.269 241.572 128.053 240.749 128.572C239.215 129.484 238.014 130.455 236.421 131.312Z" fill="#F28F8F"/>
<path d="M236.483 139.164C235.988 139.415 235.447 139.598 234.912 139.612C234.291 139.628 233.668 139.475 233.065 139.35C232.997 139.336 232.932 139.477 233 139.507C233.087 139.543 233.173 139.58 233.261 139.616C233.886 139.869 234.55 140.082 235.231 140.068C235.551 140.062 235.883 140.001 236.184 139.894C236.328 139.843 236.414 139.692 236.51 139.579C236.635 139.431 236.757 139.277 236.889 139.135C236.943 139.077 236.998 139.024 237.045 138.959C237.079 138.913 237.12 138.793 237.164 138.763C236.952 138.905 236.723 139.043 236.483 139.164Z" fill="#F28F8F"/>
<path d="M248.566 139.276C247.487 139.196 246.483 140.027 245.465 140.346C244.502 140.648 243.173 141.354 242.277 141.822C241.716 142.115 241.226 142.524 240.741 142.929C239.513 143.955 238.279 144.986 237.234 146.197C236.869 146.62 236.508 147.134 236.594 147.686C236.636 147.958 236.787 148.205 236.978 148.403C237.523 148.97 238.375 149.159 239.156 149.061C239.937 148.964 240.662 148.616 241.353 148.24C242.044 147.864 242.723 147.452 243.47 147.206C244.303 146.932 245.189 146.875 246.046 146.687C247.535 146.361 248.989 145.37 249.741 144.031C250.416 142.828 250.751 139.717 249.065 139.347C248.897 139.312 248.731 139.288 248.566 139.276Z" fill="#FFA8A7"/>
<path d="M245.465 140.346C243.69 140.882 241.786 142.019 240.471 143.373C239.218 144.575 237.562 145.675 236.834 147.269C236.722 147.64 236.873 148.017 237.176 148.303C238.179 149.243 239.671 148.895 240.821 148.328C242.474 147.341 244.121 146.824 246.045 146.687C244.184 146.975 242.558 147.6 240.972 148.63C239.785 149.312 238.012 149.665 236.885 148.604C236.511 148.281 236.249 147.69 236.411 147.157C237.193 145.423 238.876 144.34 240.256 143.114C241.602 141.814 243.653 140.718 245.465 140.346Z" fill="#F28F8F"/>
<path d="M245.41 134.532C244.527 134.932 243.605 135.337 242.762 135.851C241.466 136.641 239.993 138.266 239.584 139.817C239.513 140.084 239.475 140.367 239.54 140.636C239.633 141.019 239.969 141.25 240.29 141.441C241.48 142.147 242.813 141.972 244.062 141.536C245.156 141.154 246.247 140.744 247.265 140.186C248.098 139.729 249.18 139.289 249.852 138.606C250.432 138.015 250.728 136.918 250.51 136.12C250.332 135.468 249.802 134.463 249.277 134.042C248.64 133.531 248.022 133.594 247.248 133.776C246.569 133.934 246.022 134.255 245.41 134.532Z" fill="#FFA8A7"/>
<path d="M245.41 134.532C243.57 135.509 241.552 137.061 240.301 138.761C239.963 139.276 239.63 139.983 239.754 140.584C240.352 141.766 242.097 141.86 243.278 141.593C244.63 141.249 245.984 140.761 247.265 140.185C246.049 140.937 244.735 141.482 243.357 141.921C241.782 142.473 238.512 141.786 239.456 139.525C240.426 137.092 243.147 135.428 245.41 134.532Z" fill="#F28F8F"/>
<path d="M244.526 146.255C243.221 146.616 241.724 147.703 240.541 148.361C239.934 148.699 239.347 149.074 238.786 149.484C238.222 149.896 237.659 150.25 237.183 150.777C236.397 151.648 237.164 152.439 238.026 152.801C239.262 153.321 240.768 152.96 241.993 152.547C242.416 152.404 242.83 152.233 243.259 152.11C244.54 151.744 245.792 151.717 246.944 150.977C247.694 150.495 248.122 149.696 248.335 148.832C248.431 148.442 248.701 147.458 248.597 147.07C248.411 146.378 247.739 145.901 247.045 145.832C246.723 145.8 246.4 145.847 246.081 145.904C245.557 145.996 245.038 146.114 244.526 146.255Z" fill="#FFA8A7"/>
<path d="M246.079 145.902C243.403 146.493 240.751 148.27 238.563 149.887C237.511 150.622 236.204 151.609 237.909 152.514C239.104 153.127 240.482 152.811 241.731 152.454C243.405 151.744 245.327 151.823 246.942 150.976C246.202 151.517 245.281 151.74 244.407 151.951C242.225 152.396 239.972 153.976 237.717 152.887C235.691 151.81 236.908 150.447 238.332 149.562C240.548 147.956 243.352 146.245 246.079 145.902Z" fill="#F28F8F"/>
<path d="M161.814 122.559C172.364 124.263 173.893 126.155 181.815 136.022C189.737 145.889 201.394 161.878 201.394 161.878L220.367 147.806C220.367 147.806 219.838 153.265 222.839 157.398C225.133 160.556 229.7 162.801 231.486 162.372C231.486 162.372 211.08 187.897 204.409 190.908C197.738 193.919 193.766 192.446 188.485 187.304C183.204 182.162 162.775 158.594 162.775 158.594L161.814 122.559Z" fill="#00AC4F"/>
<path opacity="0.2" d="M161.814 122.559C172.364 124.263 173.893 126.155 181.815 136.022C189.737 145.889 201.394 161.878 201.394 161.878L220.367 147.806C220.367 147.806 219.838 153.265 222.839 157.398C225.133 160.556 229.7 162.801 231.486 162.372C231.486 162.372 211.08 187.897 204.409 190.908C197.738 193.919 193.766 192.446 188.485 187.304C183.204 182.162 162.775 158.594 162.775 158.594L161.814 122.559Z" fill="black"/>
<path opacity="0.2" d="M201.394 161.878C197.731 164.299 194.697 172.468 194.249 177.396C192.009 170.677 196.417 161.238 199.552 159.297L201.394 161.878Z" fill="black"/>
<path d="M169.948 151.179C169.47 127.689 160.461 122.812 155.324 121.36L138.514 115.903C133.416 116.427 114.052 122.579 108.062 124.012C104.206 124.935 101.812 132.689 99.7752 145.009C98.1202 155.016 97.2952 164.867 96.9252 178.861C96.5902 191.553 95.9732 198.908 92.9272 217.069C119.255 225.323 150.961 231.885 170.674 216.997C170.241 213.694 169.247 185.65 169.476 177.546C169.704 169.444 170.077 157.538 169.948 151.179Z" fill="#FAFAFA"/>
<path d="M175.138 80.8521C174.625 81.1311 174.097 81.3861 173.575 81.6361C174.172 84.1271 172.89 86.8281 170.827 88.3471C168.764 89.8661 166.069 90.3271 163.518 90.1011C160.967 89.8751 158.517 89.0191 156.123 88.1081C154.81 90.2111 152.47 91.5291 150.042 92.0271C148.218 92.4011 146.341 92.3531 144.503 92.1151C142.76 91.8891 142.777 91.8561 141.604 93.0301L134.7 100.978C133.436 102.434 132.079 103.844 130.894 105.363C130.148 106.319 130 107.53 128.976 106.469C128.086 105.547 127.492 103.85 126.876 102.722C124.021 97.4911 121.432 92.0641 119.87 86.2931C118.847 82.5161 118.281 78.4721 119.369 74.7131C120.457 70.9541 123.527 67.5671 127.41 67.0871C128.725 63.6561 131.635 60.9961 134.949 59.4101C145.849 54.1951 158.176 57.8861 168.428 62.7221C172.78 64.7751 177.575 66.5941 182.303 65.7001C180.604 68.5751 178.058 70.9421 175.068 72.4291C176.289 72.4421 177.574 72.8551 178.323 73.8191C179.403 75.2101 179.01 77.3241 177.907 78.6961C177.168 79.6181 176.184 80.2841 175.138 80.8521Z" fill="#263238"/>
<path d="M123.388 100.495C127.455 102.052 129.083 99.6066 129.083 99.6066L126.331 114.157C126.223 114.933 125.228 122.181 125.228 122.181C125.228 122.181 140.219 132.634 149.263 145.31C150.589 139.039 152.381 130.747 148.464 124.886L149.727 117.205C149.727 117.205 153.784 117.759 156.484 117.701C160.985 117.619 165.145 114.556 166.977 109.908C168.892 105.051 170.225 96.8976 169.847 90.7586C169.751 89.1906 169.814 87.6096 170.158 86.0766C171.073 82.0066 170.615 79.5206 169.961 75.9336C165.55 71.4286 151.855 68.9796 140.585 74.1256C142.203 79.7536 140.142 85.0376 135.309 86.8826C135.322 88.5976 135.026 92.8906 132.259 92.4826C130.266 92.1886 130.533 89.3426 129.086 86.6716C127.529 83.8006 122.931 83.5266 120.69 86.5666C117.554 90.8186 118.621 98.6706 123.388 100.495Z" fill="#FFA8A7"/>
<path d="M154.475 105.092C154.465 105.145 154.452 105.198 154.437 105.25C154.226 105.959 153.52 106.437 152.805 106.519C152.058 106.604 151.301 106.092 151.034 105.395C150.845 104.901 150.887 104.33 151.116 103.852C151.434 103.189 152.108 102.692 152.826 102.544C153.177 102.471 153.546 102.48 153.894 102.566C154.072 102.61 154.245 102.675 154.408 102.76C154.502 102.809 154.636 102.925 154.786 103.12C154.395 103.099 154.032 103.107 153.686 103.292C154.281 103.657 154.603 104.41 154.475 105.092Z" fill="#B16668"/>
<path d="M149.728 117.204C144.791 116.3 139.029 114.599 134.704 108.577C132.394 105.36 131.8 99.457 131.8 99.457C131.8 99.457 130.277 104.988 133.063 110.211C134.816 113.498 139.208 118.485 149.207 120.25L149.728 117.204Z" fill="#F28F8F"/>
<path d="M167.328 84.8698L163.365 81.9828C164.127 80.8508 165.632 80.5778 166.726 81.3748C167.821 82.1718 168.09 83.7358 167.328 84.8698Z" fill="#263238"/>
<path d="M166.436 90.1817C166.278 91.3707 165.224 92.2097 164.079 92.0547C162.935 91.8997 162.135 90.8107 162.292 89.6217C162.45 88.4327 163.505 87.5937 164.649 87.7477C165.793 87.9027 166.594 88.9927 166.436 90.1817Z" fill="#263238"/>
<path d="M151.401 89.2726C151.243 90.4616 150.189 91.3006 149.044 91.1456C147.9 90.9906 147.1 89.9016 147.257 88.7116C147.415 87.5226 148.47 86.6836 149.614 86.8376C150.759 86.9926 151.559 88.0816 151.401 89.2726Z" fill="#263238"/>
<path d="M145.743 82.9325L150.256 80.9795C150.765 82.2755 150.167 83.7635 148.922 84.3025C147.675 84.8425 146.252 84.2285 145.743 82.9325Z" fill="#263238"/>
<path d="M163.844 99.3116L156.78 100.787L156.513 87.3076C159.2 89.9016 161.299 93.7246 162.282 95.8506C162.282 95.8506 163.324 98.1896 163.844 99.3116Z" fill="#F28F8F"/>
<path d="M143.429 145.408L136.092 138.155L144.255 140.518L145.176 142.185L143.429 145.408Z" fill="#00AC4F"/>
<path opacity="0.15" d="M143.429 145.408L136.092 138.155L144.255 140.518L145.176 142.185L143.429 145.408Z" fill="black"/>
<path d="M153.556 144.415L155.325 137.88L152.533 137.56L151.58 141.358L153.556 144.415Z" fill="#00AC4F"/>
<path opacity="0.15" d="M153.556 144.415L155.325 137.88L152.533 137.56L151.58 141.358L153.556 144.415Z" fill="black"/>
<path d="M149.316 145.564C150.593 140.97 153.458 139.708 154.968 139.771C158.821 139.931 160.461 142.459 160.461 142.459C160.461 142.459 159.811 133.491 155.265 125.831C151.065 118.754 149.728 117.202 149.728 117.202L148.457 124.936C148.457 124.936 149.442 127.637 149.454 132.563C149.466 137.489 148.462 143.863 148.462 143.863C148.948 144.221 149.165 144.858 149.316 145.564Z" fill="#E0E0E0"/>
<path d="M126.352 114.114C124.201 114.597 124.266 117.162 118.066 119.312C118.066 119.312 118.915 135.416 134.128 145.949C136.024 144.153 138.538 142.512 141.684 141.887C146.182 140.993 149.264 145.309 149.264 145.309C149.264 145.309 148.916 143.463 147.556 141.953C141.318 135.028 137.404 130.877 133.992 127.735C124.985 119.44 126.149 115.692 126.149 115.692L126.352 114.114Z" fill="#E0E0E0"/>
<path d="M152.432 151.377C152.432 151.377 158.287 174.494 160.461 199.383C160.107 205.909 152.489 216.197 152.489 216.197L145.176 202.314C145.176 202.314 148.456 178.867 146.587 151.819L152.432 151.377Z" fill="#00AC4F"/>
<path opacity="0.15" d="M152.432 151.377C152.432 151.377 158.287 174.494 160.461 199.383C160.107 205.909 152.489 216.197 152.489 216.197L145.176 202.314C145.176 202.314 148.456 178.867 146.587 151.819L152.432 151.377Z" fill="black"/>
<path d="M145.176 142.185L151.579 141.358C151.579 141.358 153.367 143.628 153.555 144.415C153.743 145.201 152.432 151.378 152.432 151.378C152.432 151.378 149.748 153.365 146.588 151.82L143.429 145.409L145.176 142.185Z" fill="#00AC4F"/>
<path d="M163.065 79.0135C162.63 78.9555 162.234 79.0455 161.843 79.2435C161.47 79.4325 161.158 79.6915 160.921 80.0375C160.663 80.4145 160.465 80.8715 160.46 81.3345C160.458 81.5585 160.48 81.7885 160.526 82.0075C160.567 82.2045 160.64 82.3815 160.732 82.5605C160.779 82.6525 160.823 82.8175 160.949 82.8375C161.002 82.8455 161.034 82.8375 161.075 82.8005C161.121 82.6985 161.136 82.5945 161.138 82.4905C161.158 82.3195 161.16 82.1475 161.179 81.9765C161.199 81.8045 161.254 81.6395 161.287 81.4705C161.34 81.2005 161.456 80.9165 161.625 80.6895C161.795 80.4605 162.009 80.2465 162.241 80.0805C162.367 79.9905 162.504 79.9185 162.647 79.8595C162.807 79.7935 162.965 79.7195 163.127 79.6585C163.368 79.5675 163.335 79.0495 163.065 79.0135Z" fill="#F28F8F"/>
<path d="M150.631 118.675C150.631 118.675 161.674 139.18 165.609 172.244C169.544 205.307 171.213 285.859 171.993 312.921C171.993 312.921 180.857 304.668 185.855 287.64C185.914 286.645 178.86 203.494 177.118 175.349C175.376 147.204 174.652 131.379 164.876 123.115L150.631 118.675Z" fill="#00AC4F"/>
<path d="M161.824 150.82C158.31 136.04 149.727 117.203 149.727 117.203C149.727 117.203 149.789 117.213 149.891 117.224C149.932 117.224 149.973 117.234 150.014 117.234C150.966 117.367 154.203 117.746 156.487 117.695C156.723 117.695 156.958 117.674 157.194 117.654C159.56 127.815 164.651 162.794 161.824 150.82Z" fill="#00AC4F"/>
<path opacity="0.15" d="M161.824 150.82C158.31 136.04 149.727 117.203 149.727 117.203C149.727 117.203 149.789 117.213 149.891 117.224C149.932 117.224 149.973 117.234 150.014 117.234C150.966 117.367 154.203 117.746 156.487 117.695C156.723 117.695 156.958 117.674 157.194 117.654C159.56 127.815 164.651 162.794 161.824 150.82Z" fill="black"/>
<path d="M103.301 122.891C90.7224 145.005 97.7324 170.828 95.7104 192.065C90.2244 217.08 85.6474 238.199 78.4834 282.896C91.3704 312.67 120.41 323.319 120.41 323.319C120.41 323.319 129.786 184.368 128.484 153.551C122.283 131.221 121.874 117.075 121.874 117.075C116.256 118.695 109.972 121.257 103.301 122.891Z" fill="#00AC4F"/>
<path d="M128.61 154.454C128.661 153.841 131.873 125.36 131.873 125.36C131.873 125.36 127.257 117.162 126.99 111.178L127.495 107.954C127.495 107.954 125.985 108.009 125.069 110.36C123.651 113.996 121.876 117.075 121.876 117.075C121.876 117.075 119.154 133.542 128.61 154.454Z" fill="#00AC4F"/>
<path opacity="0.15" d="M128.61 154.454C128.661 153.841 131.873 125.36 131.873 125.36C131.873 125.36 127.257 117.162 126.99 111.178L127.495 107.954C127.495 107.954 125.985 108.009 125.069 110.36C123.651 113.996 121.876 117.075 121.876 117.075C121.876 117.075 119.154 133.542 128.61 154.454Z" fill="black"/>
<path d="M95.0166 191.445C102.299 199.099 123.39 205.632 123.39 205.632L121.019 270.981C121.019 270.981 109.538 279.489 109.538 278.424C109.538 277.359 116.583 211.917 116.583 211.917C116.583 211.917 101.119 206.21 93.9746 199.321L95.0166 191.445Z" fill="#00AC4F"/>
<path opacity="0.15" d="M95.0166 191.445C102.299 199.099 123.39 205.632 123.39 205.632L121.019 270.981C121.019 270.981 109.538 279.489 109.538 278.424C109.538 277.359 116.583 211.917 116.583 211.917C116.583 211.917 101.119 206.21 93.9746 199.321L95.0166 191.445Z" fill="black"/>
<path d="M179.359 197.594C179.359 197.594 175.265 200.967 171.966 203.053L174.331 267.725L181.983 274.142L178.148 208.047L180.309 205.929L179.359 197.594Z" fill="#00AC4F"/>
<path opacity="0.15" d="M179.359 197.594C179.359 197.594 175.265 200.967 171.966 203.053L174.331 267.725L181.983 274.142L178.148 208.047L180.309 205.929L179.359 197.594Z" fill="black"/>
<path d="M103.256 123.295C95.1632 124.841 88.5342 129.262 81.9892 140.397C75.5272 151.389 67.5282 164.718 62.8112 176.782C58.0942 188.846 50.5082 214.573 48.2072 222.553C47.2482 225.879 46.2092 228.885 45.7042 232.308C45.3362 234.804 45.1402 237.335 45.0262 239.854C44.9362 241.827 44.7762 243.807 44.9382 245.78C45.0812 247.52 45.2612 249.528 46.6282 250.766C46.8212 250.94 47.0342 251.103 47.1652 251.327C47.3272 251.603 47.3452 251.936 47.3912 252.252C47.6342 253.933 48.8202 255.446 50.3962 256.082C50.5132 256.129 50.6392 256.177 50.7152 256.278C50.7592 256.337 50.7822 256.408 50.8042 256.478C51.7142 259.363 52.7592 262.194 53.9462 264.985C54.1272 265.409 54.3642 265.882 54.8102 266C55.0552 266.065 55.3182 266.004 55.5492 265.899C56.2302 265.588 56.6872 264.908 56.8932 264.189C57.0982 263.47 57.0832 262.707 57.0382 261.96C56.9532 260.555 56.7662 259.155 56.4512 257.783C57.1832 259.854 58.0122 261.891 58.9332 263.885C59.1552 264.365 59.4322 264.888 59.9342 265.054C60.6002 265.273 61.2822 264.738 61.6632 264.149C62.5942 262.706 62.4222 260.876 62.1722 259.264C61.8562 257.223 61.4952 255.189 61.0912 253.164C60.8122 251.764 60.4362 250.496 60.3692 249.062C60.3022 247.626 60.3702 246.181 60.6532 244.77C60.7602 244.238 60.9012 243.696 61.2302 243.264C61.3942 243.05 61.6462 242.855 61.9092 242.916C62.1972 242.982 62.3312 243.307 62.4202 243.588C63.0402 245.546 63.6352 247.452 64.9362 249.087C65.4592 249.743 66.1162 250.359 66.9392 250.524C67.7622 250.689 68.7502 250.228 68.9022 249.403C68.9622 249.074 68.8872 248.737 68.8172 248.41C68.2502 245.787 67.9242 243.111 67.8442 240.429C67.7682 237.915 67.6912 235.492 66.9822 233.048C66.2482 230.52 64.0342 226.825 64.9392 224.301C66.4632 220.047 82.3482 187.771 82.3482 187.771C82.3482 187.771 98.9282 160.139 103.073 152.775C108.188 143.677 109.029 130.613 103.256 123.295Z" fill="#FFA8A7"/>
<path d="M54.6379 243.354C53.5079 246.933 54.1259 252.965 56.4499 257.784C55.0689 253.12 54.2609 248.566 54.6379 243.354ZM49.9319 241.979C49.0569 244.214 48.9349 252.142 50.7139 256.278C49.6429 252.444 49.6399 245.639 49.9319 241.979ZM47.1649 251.326C46.7029 247.621 46.8959 243.725 47.1649 240.479C46.2979 242.549 46.3929 248.791 47.1649 251.326Z" fill="#F28F8F"/>
<path d="M103.301 122.892C92.6312 124.505 89.9212 126.417 84.6542 134.594C79.9422 141.907 68.5042 162.303 65.1182 169.721C59.0642 182.984 47.4302 219.906 47.4302 219.906C47.4302 219.906 48.9372 223.791 55.5132 227.06C62.0892 230.329 67.4312 230.323 67.4312 230.323L84.7602 190.555C84.7602 190.555 104.665 163.13 106.588 159.404C110.449 151.924 111.591 130.422 103.301 122.892Z" fill="#00AC4F"/>
<path opacity="0.15" d="M103.301 122.892C92.6312 124.505 89.9212 126.417 84.6542 134.594C79.9422 141.907 68.5042 162.303 65.1182 169.721C59.0642 182.984 47.4302 219.906 47.4302 219.906C47.4302 219.906 48.9372 223.791 55.5132 227.06C62.0892 230.329 67.4312 230.323 67.4312 230.323L84.7602 190.555C84.7602 190.555 104.665 163.13 106.588 159.404C110.449 151.924 111.591 130.422 103.301 122.892Z" fill="black"/>
<path d="M49.9692 210.44C53.3372 217.638 66.8932 222.556 71.9832 221.359L75.6972 212.848C66.6662 212.458 58.0522 208.057 53.0912 200.938L49.9692 210.44Z" fill="#00AC4F"/>
<path opacity="0.35" d="M49.9692 210.44C53.3372 217.638 66.8932 222.556 71.9832 221.359L75.6972 212.848C66.6662 212.458 58.0522 208.057 53.0912 200.938L49.9692 210.44Z" fill="black"/>
<path d="M215.158 151.377L209.243 155.603C209.243 164.541 214.876 172.808 221.834 176.126L226.651 169.619C226.651 169.619 215.291 164.363 215.158 151.377Z" fill="#00AC4F"/>
<path opacity="0.35" d="M215.158 151.377L209.243 155.603C209.243 164.541 214.876 172.808 221.834 176.126L226.651 169.619C226.651 169.619 215.291 164.363 215.158 151.377Z" fill="black"/>
<g opacity="0.1">
<path d="M465.177 229.512L407.595 196.27C406.248 195.492 405.155 196.123 405.155 197.678V243.259C405.155 244.815 406.247 246.706 407.594 247.484L465.176 280.726C466.523 281.504 467.615 280.873 467.615 279.318V233.737C467.616 232.182 466.524 230.29 465.177 229.512Z" fill="black"/>
</g>
<path d="M400.835 202.444C400.843 202.369 400.85 202.302 400.873 202.234C400.865 202.219 400.873 202.204 400.881 202.189C400.888 202.114 400.911 202.046 400.933 201.986C400.963 201.881 401.008 201.783 401.068 201.693C401.083 201.648 401.113 201.611 401.143 201.573C401.165 201.543 401.18 201.513 401.21 201.49C401.255 201.43 401.3 201.385 401.36 201.34C401.36 201.34 401.367 201.333 401.375 201.325C401.435 201.28 401.503 201.242 401.57 201.212C401.983 201.017 402.515 201.07 403.108 201.407L458.517 233.275C459.778 234.003 460.806 235.782 460.806 238.328V283.772C460.806 282.688 460.804 282.694 460.804 282.7V283.2C460.804 283.82 460.457 284.316 459.98 284.575C459.947 284.597 459.915 284.618 459.883 284.64C459.845 284.663 459.808 284.685 459.763 284.708C459.703 284.738 459.635 284.76 459.568 284.775C459.471 284.798 459.373 284.812 459.275 284.812C459.042 284.82 458.78 284.745 458.517 284.595L458.457 284.56C458.455 284.559 458.454 284.559 458.452 284.558L456.271 283.299L403.108 252.689C401.847 251.961 400.819 250.19 400.819 248.727V202.727C400.82 202.632 400.827 202.534 400.835 202.444Z" fill="#455A64"/>
<path d="M401.57 201.213C401.983 201.018 402.516 201.071 403.109 201.408L458.518 233.276C459.779 234.004 460.807 235.783 460.807 237.238V241.673L463.636 240.016V235.633C463.636 234.177 462.615 232.406 461.355 231.678L405.938 199.81C405.285 199.427 404.7 199.42 404.279 199.675C403.866 199.924 402.058 200.958 401.57 201.213Z" fill="#00AC4F"/>
<path d="M400.825 202.714C400.834 201.27 401.852 200.686 403.11 201.412L458.52 233.28C459.783 234.009 460.806 235.782 460.806 237.24L460.804 241.679L400.826 207.179L400.825 202.714Z" fill="#00AC4F"/>
<g opacity="0.2">
<path d="M403.11 201.411L458.516 233.279C459.141 233.646 459.717 234.264 460.126 234.976L462.94 233.348C462.53 232.643 461.968 232.031 461.349 231.679L405.937 199.811C405.283 199.43 404.7 199.424 404.276 199.676C403.866 199.928 402.059 200.952 401.577 201.211C401.981 201.015 402.521 201.073 403.11 201.411Z" fill="white"/>
</g>
<path opacity="0.15" d="M463.639 240.028L463.637 235.634C463.637 234.893 463.366 234.074 462.941 233.347L460.12 234.968C460.544 235.687 460.803 236.5 460.803 237.24V241.678L463.639 240.028Z" fill="black"/>
<path d="M409.837 207.41C410.317 207.687 410.706 208.51 410.706 209.249C410.706 209.988 410.317 210.362 409.837 210.085C409.357 209.808 408.968 208.985 408.968 208.246C408.968 207.507 409.357 207.133 409.837 207.41Z" fill="white"/>
<path d="M406.709 205.6C407.189 205.877 407.578 206.701 407.578 207.439C407.578 208.178 407.189 208.552 406.709 208.275C406.229 207.998 405.84 207.175 405.84 206.436C405.84 205.697 406.229 205.323 406.709 205.6Z" fill="white"/>
<path d="M403.581 203.791C404.061 204.068 404.45 204.891 404.45 205.63C404.45 206.369 404.061 206.743 403.581 206.466C403.101 206.189 402.712 205.365 402.712 204.627C402.712 203.889 403.101 203.514 403.581 203.791Z" fill="white"/>
<path d="M459.984 284.587L460.103 284.52L462.423 283.18C463.076 282.809 463.513 282.149 463.617 281.408C463.632 281.297 463.639 281.185 463.639 281.074V240.019L460.807 241.678V283.2C460.807 283.771 460.518 284.238 460.095 284.498C460.073 284.52 460.043 284.535 460.021 284.55C460.013 284.557 460.013 284.565 460.006 284.565L459.984 284.587Z" fill="#263238"/>
<path d="M455.251 255.34C455.373 255.34 455.494 255.276 455.56 255.162C455.658 254.991 455.6 254.774 455.429 254.676L406.554 226.486C406.382 226.391 406.166 226.447 406.068 226.617C405.97 226.787 406.028 227.005 406.199 227.103L455.074 255.293C455.129 255.324 455.19 255.34 455.251 255.34Z" fill="#E0E0E0"/>
<path d="M455.251 261.541C455.373 261.541 455.494 261.477 455.56 261.363C455.658 261.192 455.6 260.975 455.429 260.877L406.554 232.687C406.382 232.593 406.166 232.648 406.068 232.818C405.97 232.988 406.028 233.206 406.199 233.304L455.074 261.494C455.129 261.525 455.19 261.541 455.251 261.541Z" fill="#E0E0E0"/>
<path d="M455.251 267.744C455.373 267.744 455.494 267.68 455.56 267.566C455.658 267.396 455.6 267.178 455.429 267.08L406.554 238.889C406.382 238.792 406.166 238.85 406.068 239.02C405.97 239.19 406.028 239.408 406.199 239.506L455.074 267.697C455.129 267.728 455.19 267.744 455.251 267.744Z" fill="#E0E0E0"/>
<g opacity="0.1">
<path d="M419.035 114.524L323.383 59.2161C322.655 58.7961 322.065 59.1361 322.065 59.9771V158.014C322.065 158.854 322.655 159.876 323.383 160.296L419.035 215.604C419.763 216.024 420.353 215.684 420.353 214.843V116.805C420.353 115.966 419.763 114.944 419.035 114.524Z" fill="black"/>
</g>
<path d="M318.739 70.7804V167.036C318.739 168.608 319.844 170.511 321.198 171.293L407.735 221.397C408.017 221.558 408.299 221.639 408.549 221.631C408.654 221.631 408.759 221.615 408.863 221.591C408.936 221.575 409.008 221.551 409.073 221.519C409.121 221.495 409.176 221.472 409.29 221.406C409.514 221.277 409.761 220.926 409.935 220.584C410.09 220.278 410.193 219.794 410.193 219.342V123.682C410.193 122.118 409.088 120.207 407.734 119.425L321.197 69.3624C320.56 68.9994 319.988 68.9434 319.544 69.1524C319.471 69.1844 319.399 69.2254 319.334 69.2734C319.326 69.2814 319.318 69.2894 319.318 69.2894C319.254 69.3384 319.205 69.3864 319.157 69.4504C319.125 69.4744 319.109 69.5074 319.085 69.5394C319.053 69.5794 319.02 69.6204 319.004 69.6684C318.94 69.7654 318.891 69.8704 318.859 69.9834C318.835 70.0474 318.81 70.1204 318.802 70.2014C318.794 70.2174 318.786 70.2334 318.794 70.2494C318.77 70.3224 318.762 70.3944 318.754 70.4754C318.748 70.5714 318.739 70.6754 318.739 70.7804Z" fill="#FAFAFA"/>
<path d="M320.108 69.9033C320.235 69.9033 320.452 69.9413 320.767 70.1203L407.3 120.181C408.377 120.803 409.322 122.439 409.322 123.682V219.342C409.322 219.686 409.24 220.028 409.158 220.188C409.017 220.465 408.879 220.628 408.834 220.663C408.798 220.682 408.762 220.699 408.734 220.713L408.726 220.717L408.681 220.739C408.603 220.755 408.568 220.759 408.55 220.759C408.548 220.759 408.545 220.759 408.545 220.759C408.477 220.759 408.358 220.748 408.169 220.64L321.635 170.538C320.539 169.905 319.612 168.302 319.612 167.037V70.7803C319.612 70.6993 319.619 70.6193 319.625 70.5443C319.626 70.5383 319.627 70.5173 319.631 70.4973L319.632 70.4933L319.655 70.4463L319.659 70.4133L319.747 70.1483L319.74 70.1373L319.796 70.0543L319.797 70.0523L319.856 69.9743L319.862 69.9693L319.867 69.9673L319.919 69.9403C319.972 69.9153 320.034 69.9033 320.108 69.9033ZM320.108 69.0303C319.904 69.0303 319.716 69.0713 319.546 69.1513C319.474 69.1833 319.401 69.2243 319.336 69.2723C319.328 69.2803 319.32 69.2883 319.32 69.2883C319.256 69.3373 319.207 69.3853 319.159 69.4493C319.127 69.4733 319.111 69.5063 319.087 69.5383C319.055 69.5783 319.022 69.6193 319.006 69.6673C318.941 69.7643 318.893 69.8693 318.861 69.9823C318.837 70.0463 318.813 70.1193 318.804 70.2003C318.796 70.2163 318.788 70.2323 318.796 70.2483C318.772 70.3213 318.764 70.3933 318.756 70.4743C318.748 70.5713 318.74 70.6753 318.74 70.7803V167.036C318.74 168.608 319.845 170.511 321.199 171.293L407.736 221.397C408.005 221.551 408.275 221.631 408.516 221.631C408.527 221.631 408.539 221.631 408.55 221.631C408.655 221.631 408.76 221.615 408.864 221.591C408.937 221.575 409.009 221.551 409.074 221.519C409.122 221.495 409.178 221.472 409.291 221.406C409.515 221.277 409.762 220.926 409.936 220.584C410.091 220.278 410.194 219.794 410.194 219.342V123.682C410.194 122.118 409.089 120.207 407.735 119.425L321.198 69.3623C320.805 69.1373 320.436 69.0303 320.108 69.0303Z" fill="#E0E0E0"/>
<path d="M319.546 69.1525C319.989 68.9425 320.562 68.9995 321.199 69.3625L407.736 119.426C409.09 120.208 410.195 122.119 410.195 123.683V131.713L416.502 128.079V120.106C416.502 118.542 415.405 116.639 414.051 115.857L327.506 65.7935C326.805 65.3825 326.176 65.3745 325.724 65.6485C325.28 65.9125 320.07 68.8785 319.546 69.1525Z" fill="#37474F"/>
<path d="M318.745 70.7645C318.755 69.2135 319.849 68.5855 321.199 69.3655L407.737 119.427C409.093 120.21 410.193 122.115 410.193 123.681L410.19 131.715L318.745 78.8255V70.7645Z" fill="#455A64"/>
<path d="M416.504 128.087L416.502 120.102C416.502 119.306 416.21 118.426 415.754 117.646L409.455 121.242C409.911 122.014 410.189 122.887 410.189 123.683V131.715L416.504 128.087Z" fill="#263238"/>
<path d="M332.681 79.3878C333.447 79.8298 334.069 81.1458 334.069 82.3258C334.069 83.5058 333.447 84.1028 332.681 83.6608C331.915 83.2178 331.293 81.9028 331.293 80.7228C331.293 79.5438 331.914 78.9458 332.681 79.3878Z" fill="#FAFAFA"/>
<path d="M327.685 76.4987C328.451 76.9407 329.073 78.2557 329.073 79.4367C329.073 80.6167 328.452 81.2147 327.685 80.7717C326.919 80.3287 326.297 79.0137 326.297 77.8337C326.297 76.6537 326.918 76.0557 327.685 76.4987Z" fill="#FAFAFA"/>
<path d="M322.689 73.609C323.455 74.052 324.077 75.367 324.077 76.547C324.077 77.727 323.456 78.325 322.689 77.882C321.923 77.44 321.301 76.124 321.301 74.944C321.301 73.764 321.922 73.166 322.689 73.609Z" fill="#FAFAFA"/>
<path d="M409.291 221.405C409.38 221.348 409.484 221.292 409.598 221.227C409.824 221.09 415.423 217.879 415.469 217.852C415.857 217.623 416.13 217.207 416.219 217.013C416.396 216.642 416.501 216.191 416.501 215.715V128.076L410.194 131.71V219.34C410.17 219.824 410.1 220.244 409.936 220.582C409.667 221.136 409.315 221.389 409.291 221.405Z" fill="#E0E0E0"/>
<path d="M324.076 123.453L403.74 169.446V134.115L324.076 88.1211V123.453Z" fill="#00AC4F"/>
<path d="M375.658 124.548C375.761 124.548 375.861 124.495 375.916 124.399C375.998 124.256 375.949 124.074 375.807 123.992L329.129 97.0779C328.985 96.9979 328.804 97.0449 328.722 97.1869C328.64 97.3299 328.689 97.5119 328.831 97.5939L375.509 124.508C375.556 124.535 375.607 124.548 375.658 124.548Z" fill="#FAFAFA"/>
<path d="M375.658 129.742C375.761 129.742 375.861 129.688 375.916 129.593C375.998 129.45 375.949 129.268 375.807 129.186L329.129 102.271C328.985 102.192 328.804 102.238 328.722 102.38C328.64 102.523 328.689 102.705 328.831 102.787L375.509 129.702C375.556 129.729 375.607 129.742 375.658 129.742Z" fill="#FAFAFA"/>
<path d="M375.658 134.937C375.761 134.937 375.861 134.883 375.916 134.788C375.998 134.645 375.949 134.463 375.807 134.381L329.129 107.466C328.985 107.385 328.804 107.433 328.722 107.576C328.64 107.719 328.689 107.901 328.831 107.983L375.509 134.898C375.556 134.924 375.607 134.937 375.658 134.937Z" fill="#FAFAFA"/>
<path d="M388.996 129.568L399.74 160.582C400.235 162.012 399.568 162.563 398.258 161.806L377.934 150.072C376.618 149.312 376.167 147.629 376.927 146.314L386.721 129.351C387.477 128.04 388.501 128.138 388.996 129.568Z" fill="#FAFAFA"/>
<path d="M387.108 147.642L388.496 148.444C388.748 148.59 388.965 148.472 388.981 148.182L389.544 137.789C389.56 137.499 389.368 137.145 389.116 137L386.488 135.483C386.236 135.338 386.044 135.455 386.059 135.746L386.625 146.854C386.64 147.143 386.856 147.496 387.108 147.642Z" fill="#455A64"/>
<path d="M387.802 153.231C388.687 153.742 389.218 153.081 389.218 152.161C389.218 150.98 388.492 149.854 387.802 149.455C386.917 148.944 386.386 149.605 386.386 150.526C386.386 151.705 387.111 152.832 387.802 153.231Z" fill="#455A64"/>
<path d="M367.951 191.797L403.74 212.418V177.086L367.951 156.466V191.797Z" fill="#E0E0E0"/>
<path d="M324.076 166.122L359.865 186.743V151.411L324.076 130.791V166.122Z" fill="#E0E0E0"/>
<g opacity="0.1">
<path d="M353.156 214.995L265.065 164.203C264.286 163.754 263.655 164.118 263.655 165.017V253.17C263.655 254.069 264.286 255.162 265.065 255.612L353.156 306.404C353.935 306.854 354.566 306.489 354.566 305.59V217.437C354.566 216.537 353.935 215.444 353.156 214.995Z" fill="black"/>
</g>
<path d="M267.068 170.664L349.292 218.053C350.15 218.548 350.847 219.753 350.847 220.744V306.17C350.847 307.161 350.147 308.357 349.284 308.844L346.324 310.523C345.461 311.01 344.066 311.003 343.208 310.508L260.983 263.119C260.125 262.624 259.429 261.419 259.429 260.428V175.003C259.429 174.012 260.129 172.814 260.992 172.327L263.952 170.648C264.815 170.162 266.21 170.169 267.068 170.664Z" fill="#00AC4F"/>
<path opacity="0.2" d="M343.208 310.509C344.035 310.989 345.546 311.006 346.327 310.527L349.284 308.842C350.145 308.361 350.848 307.161 350.848 306.17V220.744C350.848 220.227 350.655 219.66 350.353 219.158L344.303 222.659C344.59 223.14 344.762 223.693 344.762 224.188V309.609C344.762 310.517 344.122 311.04 343.208 310.509Z" fill="black"/>
<g opacity="0.2">
<path d="M259.45 174.722C259.572 173.94 260.211 173.66 260.986 174.105L343.205 221.496C343.635 221.747 344.023 222.17 344.303 222.659L350.36 219.158C350.08 218.692 349.707 218.29 349.29 218.053L267.064 170.662C266.21 170.167 264.818 170.16 263.949 170.648L260.992 172.326C260.211 172.77 259.558 173.797 259.45 174.722Z" fill="white"/>
</g>
<path d="M260.983 174.107L343.208 221.497C344.066 221.992 344.762 223.198 344.762 224.188V292.518V309.612C344.762 310.603 344.066 311.005 343.208 310.509L260.983 263.12C260.125 262.625 259.43 261.42 259.43 260.428V175.004C259.43 174.013 260.125 173.612 260.983 174.107Z" fill="white"/>
<path d="M260.673 175.363L342.587 222.574C343.057 222.845 343.518 223.645 343.518 224.188V292.518V309.253L261.604 262.043C261.134 261.772 260.673 260.972 260.673 260.428V175.363ZM260.289 173.895C259.779 173.895 259.429 174.301 259.429 175.004V260.428C259.429 261.419 260.124 262.624 260.983 263.12L343.207 310.509C343.457 310.653 343.692 310.721 343.901 310.721C344.411 310.721 344.761 310.315 344.761 309.612V292.518V224.188C344.761 223.197 344.065 221.992 343.207 221.497L260.983 174.107C260.734 173.963 260.498 173.895 260.289 173.895Z" fill="#00AC4F"/>
<path d="M335.764 279.548C335.886 279.548 336.007 279.484 336.072 279.37C336.17 279.199 336.112 278.982 335.941 278.884L268.3 239.904C268.128 239.809 267.912 239.865 267.814 240.035C267.716 240.206 267.774 240.423 267.945 240.521L335.586 279.501C335.643 279.532 335.704 279.548 335.764 279.548Z" fill="#455A64"/>
<path d="M335.764 285.749C335.886 285.749 336.007 285.685 336.072 285.571C336.17 285.4 336.112 285.183 335.941 285.085L268.3 246.105C268.128 246.011 267.912 246.066 267.814 246.236C267.716 246.406 267.774 246.624 267.945 246.722L335.586 285.702C335.643 285.733 335.704 285.749 335.764 285.749Z" fill="#455A64"/>
<path d="M335.764 291.952C335.886 291.952 336.007 291.888 336.072 291.774C336.17 291.603 336.112 291.386 335.941 291.288L268.3 252.307C268.128 252.21 267.912 252.268 267.814 252.438C267.716 252.608 267.774 252.826 267.945 252.924L335.586 291.905C335.643 291.936 335.704 291.952 335.764 291.952Z" fill="#455A64"/>
<path d="M335.764 255.386C335.886 255.386 336.007 255.322 336.072 255.208C336.17 255.037 336.112 254.82 335.941 254.722L268.3 215.742C268.128 215.647 267.912 215.703 267.814 215.873C267.716 216.044 267.774 216.261 267.945 216.359L335.586 255.339C335.643 255.37 335.704 255.386 335.764 255.386Z" fill="#455A64"/>
<path d="M335.764 261.586C335.886 261.586 336.007 261.522 336.072 261.408C336.17 261.237 336.112 261.02 335.941 260.922L268.3 221.942C268.128 221.848 267.912 221.903 267.814 222.073C267.716 222.243 267.774 222.461 267.945 222.559L335.586 261.539C335.643 261.571 335.704 261.586 335.764 261.586Z" fill="#455A64"/>
<path d="M335.764 267.789C335.886 267.789 336.007 267.725 336.072 267.611C336.17 267.44 336.112 267.223 335.941 267.125L268.3 228.144C268.128 228.047 267.912 228.105 267.814 228.275C267.716 228.445 267.774 228.663 267.945 228.761L335.586 267.742C335.643 267.773 335.704 267.789 335.764 267.789Z" fill="#455A64"/>
<path d="M335.764 231.223C335.886 231.223 336.007 231.159 336.072 231.045C336.17 230.874 336.112 230.657 335.941 230.559L268.3 191.579C268.128 191.484 267.912 191.54 267.814 191.71C267.716 191.881 267.774 192.098 267.945 192.196L335.586 231.176C335.643 231.208 335.704 231.223 335.764 231.223Z" fill="#455A64"/>
<path d="M335.764 237.424C335.886 237.424 336.007 237.36 336.072 237.246C336.17 237.075 336.112 236.858 335.941 236.76L268.3 197.78C268.128 197.686 267.912 197.741 267.814 197.911C267.716 198.081 267.774 198.299 267.945 198.397L335.586 237.377C335.643 237.408 335.704 237.424 335.764 237.424Z" fill="#455A64"/>
<path d="M335.764 243.627C335.886 243.627 336.007 243.563 336.072 243.449C336.17 243.278 336.112 243.061 335.941 242.963L268.3 203.982C268.128 203.885 267.912 203.943 267.814 204.113C267.716 204.283 267.774 204.501 267.945 204.599L335.586 243.58C335.643 243.611 335.704 243.627 335.764 243.627Z" fill="#455A64"/>
<g opacity="0.1">
<path d="M404.543 314.021L335.37 274.082C334.023 273.304 332.931 273.935 332.931 275.49V321.071C332.931 322.627 334.023 324.519 335.37 325.296L404.543 365.235C405.89 366.013 406.983 365.382 406.983 363.827V318.246C406.983 316.69 405.891 314.799 404.543 314.021Z" fill="black"/>
</g>
<path d="M328.7 279.929C328.707 279.854 328.715 279.787 328.738 279.719C328.73 279.704 328.738 279.689 328.746 279.674C328.753 279.599 328.776 279.531 328.798 279.471C328.828 279.366 328.873 279.268 328.933 279.178C328.948 279.133 328.978 279.096 329.008 279.058C329.03 279.028 329.045 278.998 329.075 278.975C329.12 278.915 329.165 278.87 329.225 278.825C329.225 278.825 329.233 278.817 329.24 278.81C329.3 278.765 329.368 278.727 329.435 278.697C329.848 278.502 330.38 278.555 330.973 278.892L397.973 317.457C399.234 318.185 400.262 319.964 400.262 322.51V367.954C400.262 366.87 400.26 366.876 400.26 366.882V367.382C400.26 368.002 399.913 368.498 399.436 368.757C399.403 368.779 399.371 368.8 399.339 368.822C399.301 368.845 399.264 368.867 399.219 368.89C399.159 368.92 399.091 368.942 399.024 368.957C398.927 368.98 398.829 368.995 398.731 368.995C398.498 369.003 398.236 368.927 397.973 368.778L397.913 368.743C397.911 368.742 397.91 368.742 397.908 368.741L395.727 367.482L330.973 330.175C329.712 329.447 328.684 327.676 328.684 326.213V280.213C328.685 280.117 328.693 280.019 328.7 279.929Z" fill="#455A64"/>
<path d="M329.436 278.698C329.849 278.503 330.381 278.556 330.974 278.893L397.974 317.458C399.235 318.186 400.263 319.965 400.263 321.42V325.855L403.092 324.198V319.815C403.092 318.359 402.071 316.588 400.81 315.86L333.802 277.295C333.149 276.912 332.564 276.905 332.144 277.16C331.731 277.409 329.923 278.443 329.436 278.698Z" fill="#00AC4F"/>
<path d="M328.69 280.199C328.699 278.755 329.718 278.171 330.974 278.897L397.975 317.462C399.238 318.191 400.261 319.964 400.261 321.422L400.259 325.861L328.69 284.664V280.199Z" fill="#00AC4F"/>
<g opacity="0.2">
<path d="M330.976 278.896L397.973 317.461C398.598 317.828 399.174 318.446 399.584 319.158L402.398 317.53C401.988 316.825 401.426 316.213 400.807 315.861L333.804 277.296C333.15 276.915 332.567 276.909 332.143 277.161C331.733 277.413 329.926 278.437 329.444 278.696C329.847 278.5 330.386 278.558 330.976 278.896Z" fill="white"/>
</g>
<path opacity="0.15" d="M403.095 324.21L403.093 319.816C403.093 319.075 402.822 318.256 402.397 317.529L399.576 319.15C400 319.869 400.259 320.682 400.259 321.422V325.86L403.095 324.21Z" fill="black"/>
<path d="M337.702 284.895C338.182 285.172 338.571 285.995 338.571 286.734C338.571 287.473 338.182 287.847 337.702 287.57C337.222 287.293 336.833 286.47 336.833 285.731C336.833 284.992 337.222 284.618 337.702 284.895Z" fill="white"/>
<path d="M334.574 283.086C335.054 283.363 335.443 284.186 335.443 284.924C335.443 285.662 335.054 286.037 334.574 285.76C334.094 285.483 333.705 284.661 333.705 283.922C333.706 283.183 334.095 282.809 334.574 283.086Z" fill="white"/>
<path d="M331.446 281.277C331.926 281.554 332.315 282.377 332.315 283.116C332.315 283.855 331.926 284.229 331.446 283.952C330.966 283.675 330.577 282.852 330.577 282.113C330.577 281.374 330.966 281 331.446 281.277Z" fill="white"/>
<path d="M399.441 368.769L399.56 368.702L401.88 367.362C402.533 366.991 402.97 366.331 403.074 365.59C403.089 365.479 403.096 365.367 403.096 365.256V324.201L400.265 325.86V367.382C400.265 367.953 399.976 368.42 399.553 368.68C399.531 368.702 399.501 368.717 399.479 368.732C399.472 368.739 399.472 368.747 399.464 368.747L399.441 368.769Z" fill="#263238"/>
<path d="M391.843 336.079C391.965 336.079 392.086 336.015 392.152 335.901C392.25 335.731 392.192 335.513 392.021 335.415L336.298 303.285C336.126 303.19 335.91 303.246 335.812 303.416C335.714 303.587 335.772 303.804 335.943 303.902L391.666 336.032C391.722 336.063 391.783 336.079 391.843 336.079Z" fill="#E0E0E0"/>
<path d="M391.843 342.28C391.965 342.28 392.086 342.216 392.152 342.102C392.25 341.931 392.192 341.714 392.021 341.616L336.298 309.486C336.126 309.392 335.91 309.447 335.812 309.617C335.714 309.788 335.772 310.005 335.943 310.103L391.666 342.233C391.722 342.264 391.783 342.28 391.843 342.28Z" fill="#E0E0E0"/>
<path d="M391.843 348.483C391.965 348.483 392.086 348.419 392.152 348.305C392.25 348.134 392.192 347.917 392.021 347.819L336.298 315.688C336.126 315.591 335.91 315.649 335.812 315.819C335.714 315.99 335.772 316.207 335.943 316.305L391.666 348.436C391.722 348.467 391.783 348.483 391.843 348.483Z" fill="#E0E0E0"/>
<g opacity="0.1">
<path d="M303.92 327.134L227.38 282.948C226.033 282.17 224.941 282.801 224.941 284.356V329.937C224.941 331.493 226.033 333.385 227.38 334.162L303.92 378.348C305.267 379.126 306.36 378.495 306.36 376.94V331.359C306.359 329.803 305.267 327.912 303.92 327.134Z" fill="black"/>
</g>
<path d="M221.325 288.929C221.332 288.854 221.34 288.786 221.363 288.719C221.356 288.704 221.363 288.689 221.371 288.674C221.378 288.599 221.401 288.531 221.424 288.471C221.454 288.366 221.499 288.268 221.559 288.178C221.574 288.133 221.604 288.096 221.634 288.058C221.656 288.028 221.671 287.998 221.701 287.975C221.746 287.915 221.791 287.87 221.851 287.825C221.851 287.825 221.859 287.818 221.866 287.81C221.926 287.765 221.994 287.727 222.061 287.697C222.474 287.502 223.006 287.554 223.599 287.892L297.967 330.705C299.228 331.433 300.256 333.212 300.256 335.758V381.202C300.256 380.118 300.254 380.124 300.254 380.13V380.63C300.254 381.25 299.907 381.746 299.43 382.005C299.397 382.027 299.365 382.048 299.333 382.07C299.295 382.093 299.258 382.115 299.213 382.138C299.153 382.168 299.085 382.19 299.018 382.205C298.921 382.228 298.823 382.242 298.725 382.242C298.492 382.25 298.23 382.175 297.967 382.025L297.907 381.99C297.905 381.989 297.904 381.989 297.902 381.988L295.721 380.729L223.599 339.175C222.338 338.447 221.31 336.676 221.31 335.212V289.212C221.311 289.117 221.318 289.019 221.325 288.929Z" fill="#455A64"/>
<path d="M294.328 351.642C294.45 351.642 294.571 351.578 294.636 351.464C294.734 351.293 294.676 351.076 294.505 350.978L226.864 311.998C226.692 311.903 226.476 311.959 226.378 312.129C226.28 312.299 226.338 312.517 226.509 312.615L294.15 351.595C294.207 351.627 294.268 351.642 294.328 351.642Z" fill="#E0E0E0"/>
<path d="M294.328 357.843C294.45 357.843 294.571 357.779 294.636 357.665C294.734 357.494 294.676 357.277 294.505 357.179L226.864 318.199C226.692 318.105 226.476 318.16 226.378 318.33C226.28 318.5 226.338 318.718 226.509 318.816L294.15 357.796C294.207 357.828 294.268 357.843 294.328 357.843Z" fill="#E0E0E0"/>
<path d="M294.328 364.045C294.45 364.045 294.571 363.981 294.636 363.867C294.734 363.696 294.676 363.479 294.505 363.381L226.865 324.4C226.693 324.303 226.477 324.361 226.379 324.531C226.281 324.701 226.339 324.919 226.51 325.017L294.151 363.998C294.207 364.029 294.268 364.045 294.328 364.045Z" fill="#E0E0E0"/>
<path d="M222.061 287.698C222.474 287.503 223.007 287.555 223.599 287.893L297.967 330.706C299.228 331.434 300.256 333.213 300.256 334.669V339.104L303.085 337.447V333.064C303.085 331.608 302.064 329.837 300.804 329.109L226.429 286.296C225.776 285.913 225.191 285.906 224.77 286.161C224.357 286.409 222.549 287.443 222.061 287.698Z" fill="#00AC4F"/>
<path d="M221.316 289.199C221.325 287.755 222.343 287.171 223.601 287.897L297.969 330.709C299.232 331.438 300.255 333.211 300.255 334.669L300.253 339.108L221.316 293.664V289.199Z" fill="#00AC4F"/>
<g opacity="0.2">
<path d="M223.601 287.896L297.966 330.708C298.591 331.074 299.167 331.693 299.576 332.405L302.39 330.777C301.98 330.072 301.418 329.46 300.799 329.107L226.429 286.295C225.775 285.914 225.192 285.908 224.768 286.16C224.358 286.412 222.551 287.436 222.069 287.695C222.472 287.5 223.012 287.558 223.601 287.896Z" fill="white"/>
</g>
<path opacity="0.15" d="M303.088 337.457L303.086 333.063C303.086 332.322 302.814 331.503 302.39 330.776L299.569 332.397C299.993 333.116 300.252 333.929 300.252 334.669V339.107L303.088 337.457Z" fill="black"/>
<path d="M230.328 293.895C230.808 294.172 231.197 294.995 231.197 295.734C231.197 296.473 230.808 296.847 230.328 296.57C229.848 296.293 229.459 295.47 229.459 294.731C229.459 293.992 229.848 293.618 230.328 293.895Z" fill="white"/>
<path d="M227.2 292.086C227.68 292.363 228.069 293.187 228.069 293.925C228.069 294.664 227.68 295.038 227.2 294.761C226.72 294.484 226.331 293.661 226.331 292.922C226.331 292.183 226.72 291.809 227.2 292.086Z" fill="white"/>
<path d="M224.072 290.276C224.552 290.553 224.941 291.377 224.941 292.115C224.941 292.854 224.552 293.228 224.072 292.951C223.592 292.674 223.203 291.85 223.203 291.112C223.203 290.374 223.592 290 224.072 290.276Z" fill="white"/>
<path d="M299.434 382.016L299.553 381.949L301.873 380.609C302.526 380.238 302.963 379.578 303.067 378.837C303.082 378.726 303.089 378.614 303.089 378.503V337.448L300.257 339.107V380.629C300.257 381.2 299.968 381.667 299.545 381.927C299.523 381.949 299.493 381.964 299.471 381.979C299.463 381.986 299.463 381.994 299.456 381.994L299.434 382.016Z" fill="#263238"/>
<path d="M413.2 176.672L437.845 190.901V300.902L348.113 249.095" stroke="#00AC4F" stroke-width="0.9702" stroke-miterlimit="10" stroke-linecap="round" stroke-linejoin="round"/>
<path d="M401.694 350.092L426.339 364.321V423.025L301.624 351.014" stroke="#00AC4F" stroke-width="0.9702" stroke-miterlimit="10" stroke-linecap="round" stroke-linejoin="round"/>
<path d="M417.319 289.051V351.085L401.805 342.128" stroke="#00AC4F" stroke-width="0.9702" stroke-miterlimit="10" stroke-linecap="round" stroke-linejoin="round"/>
<path d="M317.317 295.587V360.075" stroke="#00AC4F" stroke-width="0.9702" stroke-miterlimit="10" stroke-linecap="round" stroke-linejoin="round"/>
<g opacity="0.5">
<path d="M413.2 176.672L437.845 190.901V300.902L348.113 249.095" stroke="white" stroke-width="0.9702" stroke-miterlimit="10" stroke-linecap="round" stroke-linejoin="round"/>
<path d="M401.694 350.092L426.339 364.321V423.025L301.624 351.014" stroke="white" stroke-width="0.9702" stroke-miterlimit="10" stroke-linecap="round" stroke-linejoin="round"/>
<path d="M417.319 289.051V351.085L401.805 342.128" stroke="white" stroke-width="0.9702" stroke-miterlimit="10" stroke-linecap="round" stroke-linejoin="round"/>
<path d="M317.317 295.587V360.075" stroke="white" stroke-width="0.9702" stroke-miterlimit="10" stroke-linecap="round" stroke-linejoin="round"/>
</g>
<path d="M46.7822 66.9235C39.0202 80.0735 43.4192 97.0825 56.5642 104.827C68.3612 111.773 83.2542 108.947 91.7952 98.8045L100.277 100.204C101.722 100.439 102.709 98.7725 101.798 97.6115L96.4672 90.8705C101.217 78.4825 96.4722 64.0805 84.6852 57.1415C71.5282 49.3905 54.5262 53.7785 46.7822 66.9235ZM92.5742 93.9675C85.3882 106.097 69.7432 110.09 57.6262 102.911C45.5082 95.7305 41.4972 80.0905 48.6832 67.9625C55.8632 55.8445 71.5072 51.8515 83.6252 59.0315C95.7422 66.2095 99.7532 81.8495 92.5742 93.9675Z" fill="#455A64"/>
<path d="M84.6422 102.283C96.4106 94.5407 99.6744 78.7242 91.9321 66.9558C84.1898 55.1874 68.3733 51.9236 56.6049 59.6659C44.8365 67.4082 41.5727 83.2247 49.315 94.9931C57.0573 106.762 72.8738 110.025 84.6422 102.283Z" fill="white"/>
<path d="M60.3511 66.676C60.9561 66.142 61.6201 65.635 62.3401 65.154C63.0611 64.673 63.8401 64.256 64.6761 63.899C65.5121 63.544 66.4211 63.263 67.3991 63.058C68.3781 62.854 69.4361 62.751 70.5761 62.751C72.1251 62.751 73.5361 62.965 74.8081 63.392C76.0791 63.819 77.1701 64.429 78.0781 65.221C78.9861 66.013 79.6891 66.97 80.1881 68.091C80.6851 69.212 80.9341 70.467 80.9341 71.855C80.9341 73.208 80.7391 74.378 80.3471 75.366C79.9551 76.354 79.4661 77.213 78.8791 77.942C78.2911 78.672 77.6461 79.303 76.9431 79.838C76.2401 80.372 75.5781 80.875 74.9551 81.346C74.3311 81.818 73.7931 82.28 73.3391 82.734C72.8851 83.188 72.6141 83.7 72.5251 84.269L71.9121 88.167H67.4001L66.9461 83.815C66.8391 82.979 66.9601 82.245 67.3071 81.613C67.6541 80.981 68.1171 80.402 68.6951 79.878C69.2731 79.353 69.9181 78.846 70.6301 78.356C71.3411 77.867 72.0091 77.333 72.6321 76.754C73.2541 76.176 73.7761 75.526 74.1941 74.806C74.6121 74.085 74.8211 73.226 74.8211 72.229C74.8211 71.588 74.7021 71.015 74.4601 70.507C74.2201 69.999 73.8871 69.564 73.4601 69.199C73.0331 68.834 72.5211 68.554 71.9251 68.358C71.3291 68.162 70.6831 68.064 69.9901 68.064C68.9761 68.064 68.1171 68.175 67.4141 68.398C66.7101 68.621 66.1141 68.869 65.6251 69.146C65.1361 69.422 64.7221 69.671 64.3841 69.893C64.0461 70.116 63.7441 70.227 63.4771 70.227C62.8361 70.227 62.3731 69.96 62.0881 69.427L60.3511 66.676ZM65.3981 95.204C65.3981 94.653 65.5001 94.127 65.7051 93.629C65.9091 93.131 66.1901 92.704 66.5461 92.348C66.9021 91.992 67.3291 91.707 67.8281 91.494C68.3261 91.28 68.8611 91.174 69.4301 91.174C70.0001 91.174 70.5281 91.281 71.0181 91.494C71.5071 91.708 71.9341 91.992 72.3001 92.348C72.6641 92.704 72.9531 93.131 73.1671 93.629C73.3811 94.127 73.4871 94.653 73.4871 95.204C73.4871 95.774 73.3801 96.303 73.1671 96.792C72.9531 97.282 72.6641 97.705 72.3001 98.061C71.9351 98.417 71.5071 98.697 71.0181 98.902C70.5281 99.106 69.9991 99.209 69.4301 99.209C68.8601 99.209 68.3261 99.106 67.8281 98.902C67.3301 98.698 66.9021 98.417 66.5461 98.061C66.1901 97.705 65.9101 97.282 65.7051 96.792C65.5001 96.303 65.3981 95.774 65.3981 95.204Z" fill="#00AC4F"/>
</g>
<defs>
<clipPath id="clip0_2017_1871">
<rect width="500" height="500" fill="white"/>
</clipPath>
</defs>
</svg>
