<svg width="63" height="54" viewBox="0 0 63 54" fill="none" xmlns="http://www.w3.org/2000/svg">
<path d="M9.625 11.6885H7.4375C5.69702 11.6885 4.02782 12.3799 2.79711 13.6106C1.5664 14.8413 0.875 16.5105 0.875 18.251C0.875 19.9915 1.5664 21.6607 2.79711 22.8914C4.02782 24.1221 5.69702 24.8135 7.4375 24.8135H9.625C10.2052 24.8135 10.7616 24.583 11.1718 24.1728C11.582 23.7625 11.8125 23.2061 11.8125 22.626V13.876C11.8125 13.2958 11.582 12.7394 11.1718 12.3292C10.7616 11.9189 10.2052 11.6885 9.625 11.6885Z" fill="#275C45"/>
<path d="M32.3531 50.1229C31.5851 51.2225 30.5296 52.09 29.302 52.6305C28.0744 53.171 26.7218 53.3637 25.3921 53.1876C24.0624 53.0115 22.8066 52.4734 21.762 51.632C20.7174 50.7906 19.9241 49.6783 19.4687 48.4166L12.4688 29.1885H28.0656L33.2281 43.4291C33.6373 44.5319 33.7714 45.7179 33.6189 46.8843C33.4665 48.0506 33.032 49.1622 32.3531 50.1229Z" fill="#275C45"/>
<path d="M31.5 7.3125H9.625C8.41688 7.3125 7.4375 8.29188 7.4375 9.5V27C7.4375 28.2081 8.41688 29.1875 9.625 29.1875H31.5C32.7081 29.1875 33.6875 28.2081 33.6875 27V9.5C33.6875 8.29188 32.7081 7.3125 31.5 7.3125Z" fill="#96E3B9"/>
<path d="M55.5625 11.6885H51.1875C50.6073 11.6885 50.0509 11.9189 49.6407 12.3292C49.2305 12.7394 49 13.2958 49 13.876V22.626C49 23.2061 49.2305 23.7625 49.6407 24.1728C50.0509 24.583 50.6073 24.8135 51.1875 24.8135H55.5625C57.303 24.8135 58.9722 24.1221 60.2029 22.8914C61.4336 21.6607 62.125 19.9915 62.125 18.251C62.125 16.5105 61.4336 14.8413 60.2029 13.6106C58.9722 12.3799 57.303 11.6885 55.5625 11.6885Z" fill="#275C45"/>
<path d="M33.6875 22.9756V27.0006C33.6858 27.5802 33.4548 28.1357 33.0449 28.5455C32.6351 28.9554 32.0796 29.1864 31.5 29.1881H9.625C9.04535 29.1864 8.48993 28.9554 8.08005 28.5455C7.67018 28.1357 7.43917 27.5802 7.4375 27.0006V25.6443C16.2758 26.2651 25.155 25.3624 33.6875 22.9756Z" fill="#96E3B9"/>
<path d="M52.5332 1.21385C52.272 1.00784 51.9668 0.864833 51.6413 0.795937C51.3159 0.727041 50.9789 0.734113 50.6566 0.816601L33.1566 5.1916C32.6835 5.30995 32.2636 5.58296 31.9635 5.96728C31.6633 6.3516 31.5002 6.82519 31.5 7.31282V29.1878C31.5 29.6756 31.6631 30.1493 31.9633 30.5338C32.2634 30.9182 32.6834 31.1913 33.1566 31.3097L50.6566 35.6847C50.8301 35.7287 51.0085 35.7507 51.1875 35.7503C51.7676 35.75 52.3238 35.5195 52.734 35.1093C53.1441 34.6991 53.3747 34.1429 53.375 33.5628V2.93782C53.3748 2.60541 53.2989 2.2774 53.1531 1.97869C53.0072 1.67998 52.7953 1.41842 52.5332 1.21385Z" fill="#96E3B9"/>
<path d="M53.375 9.78516V33.5633C53.3779 33.8514 53.3234 34.1371 53.2145 34.4039C53.1056 34.6706 52.9445 34.9129 52.7408 35.1166C52.5371 35.3203 52.2948 35.4813 52.0281 35.5902C51.7614 35.6991 51.4756 35.7537 51.1875 35.7508C51.0105 35.7505 50.8342 35.7285 50.6625 35.6852L33.1625 31.3102C32.6873 31.1947 32.2648 30.9226 31.9632 30.5376C31.6615 30.1527 31.4984 29.6773 31.5 29.1883V23.5883C42.4156 20.7664 49.175 15.5164 53.375 9.78516Z" fill="#96E3B9"/>
</svg>
